# xmcd
#
# Track frame offsets: 
#        150
#        12230
#        24470
#        34243
#        45594
#        55348
#        66935
#        80163
#        92550
#        106450
#        118549
#
# Disc length: 1692 seconds
#
# Revision: 4
# Processed by: cddbd v1.5.2PL0 Copyright (c) Steve Scherf et al.
# Submitted via: ExactAudioCopyFreeDBPlugin 1.0
#
DISCID=8d069a0b
DTITLE=Glen Campbell - 1969 -Galveston
DYEAR=1969
DGENRE=Country
TTITLE0=Galveston
TTITLE1=Take My Hand For A While
TTITLE2=If This Is Love
TTITLE3=Today
TTITLE4=Gotta Have Tenderness
TTITLE5=Friends
TTITLE6=Where's The Playground Susie
TTITLE7=Time
TTITLE8=Until It's Time For You To Go
TTITLE9=Oh What A Woman
TTITLE10=Every Time I Itch I Wind Up Scratchin' You
EXTD=
EXTT0=
EXTT1=
EXTT2=
EXTT3=
EXTT4=
EXTT5=
EXTT6=
EXTT7=
EXTT8=
EXTT9=
EXTT10=
PLAYORDER=
